<svg xmlns="http://www.w3.org/2000/svg" height="32" enable-background="new 0 0 32 32" viewBox="0 0 32 32"><path d="M19.02002 20.17999h-6.04004c-.64996-2.22003-2.67999-3.85999-5.10999-3.85999-2.96002 0-5.35999 2.39996-5.35999 5.35999 0 2.95001 2.39996 5.35999 5.35999 5.35999 2.42999 0 4.46002-1.64001 5.10999-3.85999h6.04004c.64996 2.21997 2.67999 3.85999 5.10999 3.85999 2.96002 0 5.35999-2.40997 5.35999-5.35999 0-2.96002-2.39996-5.35999-5.35999-5.35999C21.70001 16.32001 19.66998 17.95996 19.02002 20.17999zM2 15.21997h28c.83002 0 1.5-.66998 1.5-1.5 0-.82996-.66998-1.5-1.5-1.5h-2.92999l-2.16003-6.25C24.70001 5.37 24.13 4.95996 23.48999 4.95996H8.51001C7.87 4.95996 7.29999 5.37 7.09003 5.96997l-2.16003 6.25H2c-.83002 0-1.5.67004-1.5 1.5C.5 14.54999 1.16998 15.21997 2 15.21997z"/></svg>